<?xml version="1.0" standalone="no"?>
<!DOCTYPE svg PUBLIC "-//W3C//DTD SVG 20010904//EN"
 "http://www.w3.org/TR/2001/REC-SVG-20010904/DTD/svg10.dtd">
<svg version="1.0" xmlns="http://www.w3.org/2000/svg"
 width="1246.000000pt" height="1246.000000pt" viewBox="0 0 1246.000000 1246.000000"
 preserveAspectRatio="xMidYMid meet">
<metadata>
Created by potrace 1.14, written by Peter Selinger 2001-2017
</metadata>
<g transform="translate(0.000000,1246.000000) scale(0.100000,-0.100000)"
fill="#000000" stroke="none">
<path d="M3690 10446 c-72 -42 -110 -110 -105 -193 3 -72 23 -99 155 -213 35
-30 80 -69 99 -87 44 -39 71 -62 135 -116 27 -23 61 -53 76 -67 15 -14 51 -45
80 -70 29 -25 66 -56 81 -70 15 -14 48 -43 74 -65 26 -22 60 -51 75 -65 16
-14 52 -45 81 -70 29 -25 68 -59 86 -77 18 -17 33 -29 33 -27 0 3 11 -5 24
-18 12 -13 34 -32 47 -43 13 -12 47 -41 75 -65 27 -25 79 -70 114 -100 35 -30
74 -64 86 -75 12 -11 31 -27 41 -36 10 -8 59 -50 108 -94 50 -43 117 -101 149
-129 33 -28 67 -58 76 -66 8 -8 63 -55 120 -105 58 -49 107 -92 110 -95 3 -3
55 -48 115 -100 61 -52 117 -101 126 -109 9 -9 29 -27 45 -40 30 -25 161 -139
180 -156 6 -5 32 -28 58 -50 26 -22 57 -49 69 -60 13 -11 52 -45 87 -75 35
-30 76 -66 92 -80 37 -33 48 -43 143 -124 44 -38 89 -77 100 -87 11 -10 31
-28 45 -40 168 -142 232 -200 228 -204 -2 -2 -30 -6 -63 -9 -33 -4 -89 -11
-124 -16 -35 -5 -67 -9 -70 -8 -3 0 -8 0 -11 -2 -3 -1 -21 -3 -40 -5 -19 -1
-57 -6 -85 -9 -27 -4 -70 -9 -95 -12 -25 -2 -61 -7 -80 -10 -19 -3 -51 -7 -70
-9 -31 -3 -413 -49 -500 -60 -38 -5 -99 -12 -170 -21 -25 -3 -56 -7 -70 -9
-30 -5 -124 -16 -165 -20 -16 -1 -50 -6 -75 -9 -25 -4 -65 -8 -90 -11 -25 -2
-61 -6 -80 -9 -19 -3 -57 -8 -85 -11 -27 -3 -84 -10 -126 -15 -80 -11 -107
-14 -279 -34 -25 -3 -61 -8 -80 -10 -19 -3 -60 -8 -90 -11 -30 -4 -68 -9 -85
-12 -16 -2 -46 -6 -65 -8 -189 -20 -277 -32 -293 -42 -6 -4 -7 -1 -2 7 5 8 4
11 -2 7 -14 -9 -24 -10 -368 -52 -40 -5 -76 -10 -151 -20 -23 -3 -69 -7 -103
-10 -33 -2 -64 -6 -69 -8 -4 -3 -38 -8 -77 -11 -38 -4 -81 -8 -95 -10 -14 -3
-46 -7 -73 -11 -77 -9 -120 -34 -174 -99 -10 -12 -27 -75 -27 -101 1 -56 20
-99 61 -141 25 -24 48 -42 51 -40 3 3 11 1 18 -5 16 -13 88 -15 174 -5 36 4
76 9 90 11 14 1 50 6 80 10 30 4 69 9 85 11 17 1 50 5 75 9 25 3 63 8 85 10
22 3 56 8 76 10 20 3 59 8 85 10 27 3 65 7 84 10 19 2 54 7 78 10 23 3 59 7
80 10 20 3 57 7 82 10 25 3 79 9 120 15 83 10 140 17 215 25 28 3 61 8 75 10
53 8 146 19 177 19 18 1 33 3 33 6 0 3 12 5 28 6 27 1 57 4 222 25 47 6 103
12 124 14 21 3 57 7 78 10 22 4 54 8 71 9 36 4 108 13 217 26 41 5 98 12 125
15 28 3 66 8 85 11 19 3 55 7 80 9 25 3 62 7 83 10 58 8 108 14 155 20 23 3
61 7 85 10 23 3 58 8 78 10 49 7 115 15 169 20 25 2 59 6 75 9 47 8 178 24
195 24 8 0 35 3 60 6 80 12 94 14 160 21 36 4 74 9 85 11 11 2 45 6 75 9 30 3
65 7 77 9 12 3 48 7 80 11 33 3 72 8 87 11 16 2 49 7 75 9 25 2 46 5 46 5 0 2
28 7 75 13 25 3 57 10 71 15 35 14 89 61 89 78 0 8 4 14 10 14 11 0 26 72 22
113 -5 64 -79 152 -215 254 -20 16 -39 36 -42 46 -4 9 -11 17 -17 17 -6 0 -29
17 -52 38 -23 20 -68 60 -100 87 -32 28 -71 61 -86 75 -15 14 -45 39 -66 57
-22 17 -53 44 -71 60 -17 15 -57 51 -89 78 -32 28 -68 59 -80 70 -32 30 -67
60 -189 165 -61 51 -123 106 -140 121 -16 15 -66 58 -110 96 -44 37 -87 75
-95 83 -8 8 -46 42 -85 75 -38 32 -77 66 -86 75 -9 8 -29 26 -45 39 -16 13
-60 52 -99 85 -38 34 -83 72 -99 86 -16 14 -34 30 -40 35 -6 6 -63 55 -126
110 -63 54 -122 106 -131 115 -8 8 -35 31 -58 50 -24 19 -56 46 -71 60 -31 28
-42 38 -195 170 -161 139 -167 144 -179 155 -6 6 -45 39 -86 75 -41 36 -80 70
-86 75 -6 6 -35 30 -64 55 -29 25 -58 50 -64 55 -6 6 -47 41 -91 79 -44 39
-84 75 -90 80 -5 6 -32 29 -59 50 -26 22 -58 49 -70 60 -12 12 -50 46 -86 76
-36 30 -67 57 -70 60 -3 3 -54 48 -115 100 -60 52 -112 97 -115 101 -3 3 -21
14 -40 24 -50 26 -136 26 -180 1z"/>
<path d="M11805 8362 c-185 -31 -422 -139 -576 -263 -120 -96 -227 -231 -286
-360 -57 -123 -95 -335 -72 -398 8 -19 5 -27 -10 -38 -11 -7 -26 -19 -33 -26
-16 -16 -276 -227 -533 -434 -104 -84 -201 -163 -215 -176 -14 -12 -37 -30
-52 -40 -16 -10 -28 -24 -28 -31 0 -18 -31 -25 -140 -32 -225 -16 -320 -22
-390 -28 -36 -3 -96 -8 -135 -11 -165 -12 -223 -16 -270 -20 -27 -2 -88 -7
-135 -10 -47 -3 -107 -8 -135 -10 -27 -2 -88 -7 -135 -10 -47 -3 -110 -8 -140
-11 -30 -3 -84 -7 -120 -9 -36 -2 -94 -6 -130 -9 -122 -10 -225 -17 -280 -21
-30 -2 -82 -6 -115 -9 -33 -3 -98 -8 -145 -11 -47 -3 -110 -8 -140 -10 -30 -3
-91 -7 -135 -10 -44 -3 -107 -8 -140 -10 -33 -3 -89 -7 -125 -10 -36 -2 -94
-7 -130 -9 -124 -10 -205 -16 -280 -21 -41 -3 -97 -7 -125 -9 -27 -3 -90 -8
-140 -11 -49 -4 -112 -9 -140 -11 -27 -2 -81 -6 -120 -9 -135 -9 -220 -16
-265 -20 -25 -2 -90 -7 -145 -11 -55 -3 -116 -7 -135 -9 -19 -2 -75 -6 -125
-9 -49 -4 -112 -9 -140 -11 -27 -3 -90 -8 -140 -11 -49 -3 -108 -7 -130 -9
-22 -1 -77 -5 -123 -9 -95 -7 -119 -17 -128 -51 -9 -36 3 -61 36 -75 27 -11
153 -9 280 4 19 3 80 7 135 11 55 3 112 8 127 10 15 2 72 6 125 10 54 3 116 8
138 11 22 2 81 6 130 9 50 3 106 7 125 9 19 3 78 7 130 11 52 3 115 8 140 10
25 2 84 7 133 10 48 3 104 8 125 10 20 2 75 6 122 10 47 3 110 8 140 10 30 3
89 7 130 10 41 2 100 7 130 9 70 7 199 16 270 21 60 4 179 13 275 21 33 3 89
7 125 9 36 3 90 7 120 9 30 3 93 7 140 10 47 4 105 8 130 10 25 3 86 8 135 11
50 4 113 8 140 11 28 2 88 6 135 9 47 3 105 7 130 9 25 3 82 7 127 11 77 6
120 9 278 20 39 2 97 7 130 10 80 7 257 20 395 30 30 2 87 6 125 9 89 7 191
15 280 21 74 5 157 11 265 20 36 3 101 8 145 11 44 3 103 7 130 9 28 2 95 6
150 9 106 7 121 10 172 33 54 25 48 67 -14 92 -37 15 -89 17 -193 7 -41 -4
-95 -9 -120 -11 -25 -2 -83 -6 -130 -10 -159 -12 -210 -13 -210 -4 0 5 4 9 8
9 4 0 41 27 82 61 41 33 90 72 109 87 18 15 38 32 45 37 11 10 223 183 445
363 l114 92 66 -2 c91 -2 151 6 256 37 181 53 312 129 425 244 132 137 218
326 266 591 10 51 25 102 31 97 10 -11 61 15 70 36 16 34 -3 71 -50 98 -50 29
-137 33 -262 11z m95 -173 c-7 -24 -14 -55 -17 -69 -2 -14 -9 -43 -15 -65 -5
-22 -12 -51 -14 -64 -14 -76 -74 -212 -127 -291 -91 -133 -287 -264 -459 -306
-17 -4 -28 -6 -93 -20 -24 -5 -14 6 56 62 138 111 150 122 159 153 7 24 4 33
-13 49 -21 19 -39 26 -63 23 -10 -1 -108 -73 -124 -91 -3 -3 -25 -21 -50 -40
-25 -19 -47 -37 -50 -40 -16 -18 -95 -80 -101 -80 -4 0 -6 17 -3 38 25 218
150 420 359 577 121 91 361 194 488 210 29 4 54 9 56 11 3 2 9 0 14 -5 5 -5 4
-27 -3 -52z"/>
<path d="M9805 7674 c-88 -16 -132 -22 -220 -29 -84 -6 -133 -12 -250 -30 -16
-3 -46 -7 -65 -10 -19 -2 -48 -7 -65 -10 -16 -3 -43 -7 -60 -10 -16 -3 -41 -7
-55 -10 -13 -3 -40 -7 -60 -10 -20 -3 -47 -7 -60 -10 -14 -3 -74 -14 -135 -25
-60 -11 -120 -22 -132 -25 -13 -3 -33 -7 -45 -10 -36 -8 -131 -26 -153 -30
-11 -2 -42 -9 -70 -15 -58 -13 -64 -15 -125 -26 -25 -4 -47 -8 -50 -9 -3 -1
-27 -5 -55 -10 -27 -4 -59 -9 -70 -11 -11 -2 -36 -7 -55 -10 -44 -8 -100 -36
-122 -61 -27 -30 -50 -92 -47 -132 5 -72 66 -145 134 -160 33 -7 117 -6 170 2
55 8 100 14 160 22 88 10 132 17 180 25 28 5 68 11 90 14 22 3 49 7 60 9 19 4
130 18 140 18 2 0 19 5 37 10 33 9 522 92 608 103 25 3 77 8 115 11 236 19
391 50 431 86 11 11 23 17 26 14 7 -7 56 94 62 127 12 70 -44 165 -118 199
-47 21 -101 22 -201 3z"/>
<path d="M1056 7023 c-4 -4 -124 -12 -281 -18 -77 -4 -156 -8 -175 -10 -49 -6
-210 -18 -240 -18 -25 0 -154 11 -168 15 -17 5 -51 -15 -57 -33 -11 -33 4 -75
30 -87 13 -6 32 -24 41 -39 43 -70 91 -140 112 -163 12 -14 22 -28 22 -32 0
-6 65 -80 130 -148 41 -43 223 -194 294 -245 139 -99 344 -184 611 -255 132
-35 181 -41 300 -40 236 3 413 50 485 130 8 9 39 35 69 59 l54 42 81 -6 c45
-3 92 -7 106 -10 24 -4 81 -10 200 -20 30 -3 75 -7 100 -9 25 -3 72 -7 105
-11 33 -3 85 -7 115 -10 30 -3 73 -8 95 -10 22 -3 75 -7 117 -10 43 -4 86 -8
97 -10 10 -2 56 -6 102 -10 46 -4 98 -8 114 -10 17 -2 59 -6 95 -9 36 -4 83
-8 105 -11 39 -4 124 -12 215 -20 57 -5 166 -16 205 -20 17 -2 64 -6 105 -10
41 -4 91 -8 110 -10 19 -2 69 -7 110 -10 41 -3 86 -8 100 -10 14 -2 61 -7 105
-11 44 -4 94 -8 110 -10 17 -2 59 -6 95 -8 36 -3 83 -7 105 -10 60 -7 245 -25
315 -31 66 -5 195 -18 210 -21 8 -1 34 -3 58 -3 28 -1 42 -5 41 -13 -4 -34 4
-52 41 -89 50 -51 88 -106 129 -187 l31 -62 -25 -10 c-15 -6 -32 -10 -39 -10
-6 0 -16 -4 -21 -8 -6 -5 -39 -19 -75 -31 -36 -12 -78 -29 -95 -36 -16 -7 -50
-20 -75 -28 -25 -8 -66 -25 -93 -36 -26 -11 -51 -21 -55 -22 -14 -3 -697 -256
-727 -270 -22 -10 -585 -220 -1000 -373 -318 -118 -335 -125 -336 -145 0 -9
-2 -24 -4 -33 -5 -26 27 -61 56 -60 14 0 549 196 1189 437 641 241 1199 450
1240 465 41 15 82 31 92 35 13 5 21 -10 46 -84 l29 -91 -26 -6 c-87 -21 -201
-125 -286 -262 -25 -39 -45 -74 -45 -77 0 -3 -6 -20 -14 -38 -43 -105 -61
-266 -44 -402 4 -33 10 -76 12 -96 8 -56 43 -181 102 -363 31 -93 57 -176 59
-185 2 -9 10 -41 19 -71 30 -107 47 -226 45 -315 -1 -22 -1 -55 -2 -74 -1 -59
60 -82 102 -37 15 16 29 22 46 18 19 -3 33 4 58 30 17 19 61 55 97 81 89 64
96 71 171 162 86 105 119 154 162 245 73 153 99 271 113 513 14 231 -8 359
-91 536 -73 153 -143 241 -255 320 l-74 52 -36 122 c-20 67 -53 160 -73 206
-38 87 -116 219 -142 241 -23 19 -18 31 13 26 27 -5 134 -15 202 -21 49 -3
166 -15 220 -22 69 -8 92 -5 116 18 43 40 6 108 -60 110 -32 1 -38 2 -148 13
-37 4 -89 9 -115 11 -53 4 -172 15 -218 20 -16 2 -66 6 -110 10 -44 3 -91 8
-105 11 -14 2 -54 6 -90 9 -36 3 -83 8 -105 10 -22 2 -69 7 -105 10 -36 3 -83
8 -105 10 -22 3 -74 7 -115 11 -41 3 -88 7 -105 9 -53 6 -148 16 -200 20 -27
3 -75 7 -105 10 -30 2 -77 7 -105 9 -27 3 -79 8 -115 11 -36 4 -81 8 -100 10
-19 2 -69 7 -110 10 -41 3 -86 8 -100 10 -14 2 -59 7 -100 10 -41 4 -91 8
-110 10 -19 2 -66 6 -105 10 -38 3 -88 8 -110 11 -22 2 -65 7 -95 9 -130 12
-167 16 -210 20 -25 3 -72 8 -105 10 -33 3 -76 7 -95 9 -19 3 -71 8 -115 12
-44 3 -93 8 -110 10 -16 2 -64 6 -105 9 -41 3 -86 8 -98 10 -13 2 -58 7 -100
10 -43 4 -93 8 -112 10 -19 2 -66 7 -105 10 -38 3 -83 7 -100 9 -16 2 -66 7
-110 11 -44 4 -83 10 -87 14 -4 3 -10 24 -13 46 -7 43 -51 150 -72 176 -7 8
-13 19 -13 23 0 11 -77 104 -120 144 -88 84 -238 183 -357 235 -124 55 -204
70 -376 71 -87 1 -160 0 -161 -1z m363 -147 c71 -19 192 -70 233 -98 14 -10
29 -18 32 -18 3 0 36 -21 74 -47 123 -85 223 -202 265 -311 19 -47 22 -76 8
-67 -5 3 -43 8 -83 11 -40 3 -89 7 -108 9 -98 11 -178 15 -203 9 -33 -7 -44
-42 -27 -83 15 -37 21 -38 215 -56 206 -18 257 -24 264 -30 2 -3 -4 -12 -15
-20 -112 -88 -377 -122 -595 -76 -131 27 -365 104 -469 153 -204 98 -475 323
-614 512 -31 41 -56 77 -56 80 0 2 30 5 68 5 37 1 81 3 97 5 74 10 169 17 275
21 155 6 304 15 307 19 2 2 63 2 136 1 89 -1 153 -7 196 -19z m4526 -1806 c5
-17 8 -34 31 -163 23 -134 27 -178 27 -352 1 -164 -4 -211 -28 -269 -25 -59
-1 -116 49 -116 61 1 100 98 112 275 3 39 5 75 6 80 2 16 -12 241 -16 262 -2
11 -7 51 -11 89 -7 70 -8 85 -20 164 l-6 45 53 -57 c76 -81 163 -253 194 -384
4 -16 8 -99 9 -184 3 -138 -2 -215 -20 -330 -36 -231 -192 -476 -392 -619 -40
-28 -73 -48 -74 -43 0 4 -2 23 -4 42 -3 19 -6 53 -9 75 -2 22 -7 47 -10 55 -3
8 -8 29 -11 45 -18 93 -13 78 -105 360 -34 105 -71 235 -82 290 -24 125 -29
278 -11 364 26 128 137 311 222 368 38 26 88 27 96 3z"/>
<path d="M10836 6362 c-2 -1 -36 -4 -77 -7 -41 -2 -85 -6 -99 -9 -14 -3 -44
-8 -65 -10 -186 -23 -397 -118 -510 -231 -39 -38 -77 -80 -85 -93 l-15 -23
-660 -4 c-363 -2 -757 -4 -875 -4 -118 0 -222 0 -230 0 -53 0 -188 -1 -205 -1
-11 0 -49 0 -85 1 -36 0 -72 0 -80 0 -8 -1 -42 -1 -75 -1 -33 0 -80 0 -105 0
-134 -1 -199 0 -238 2 -23 2 -42 1 -42 -2 0 -3 -24 -4 -52 -3 -89 4 -182 5
-193 3 -14 -3 -150 -2 -161 1 -16 5 -59 -13 -71 -30 -15 -21 -7 -71 15 -87 17
-14 49 -14 1175 -15 l358 0 8 -22 c5 -12 52 -111 105 -221 53 -109 96 -199 96
-201 0 -1 45 -96 100 -210 55 -113 100 -212 100 -218 0 -7 -22 -20 -48 -29
-56 -20 -131 -89 -158 -145 -81 -170 -37 -380 128 -607 41 -57 167 -211 223
-272 5 -6 37 -42 70 -80 33 -37 79 -88 102 -113 24 -25 43 -49 43 -52 0 -8
-124 -2 -310 16 -74 7 -157 14 -360 30 -47 4 -103 9 -125 11 -22 1 -76 5 -120
9 -44 3 -98 7 -120 9 -22 3 -81 8 -132 11 -84 6 -93 5 -112 -14 -24 -24 -27
-59 -8 -83 23 -30 75 -40 282 -54 50 -3 108 -7 130 -9 22 -2 81 -6 130 -10 50
-3 112 -8 139 -11 27 -3 79 -7 115 -9 36 -2 95 -6 131 -9 36 -3 94 -8 130 -11
36 -3 94 -8 130 -11 88 -8 138 -11 182 -13 39 -1 36 3 121 -146 48 -83 62 -96
102 -91 66 9 78 28 90 146 6 58 16 71 49 64 12 -2 48 -6 81 -9 95 -6 205 -15
265 -20 30 -3 91 -8 135 -11 44 -3 96 -7 115 -9 34 -3 126 -10 260 -20 163
-12 197 -15 231 -20 69 -10 116 27 103 80 -8 31 -45 52 -99 54 -46 2 -116 7
-235 16 -47 4 -92 7 -100 8 -8 0 -21 4 -27 10 -9 6 -13 6 -13 -2 0 -7 -4 -10
-8 -7 -7 4 -76 11 -212 21 -45 3 -202 16 -260 21 -104 9 -197 16 -218 15 -12
0 -25 5 -28 13 -3 7 11 60 31 117 68 194 79 258 78 454 -1 133 -7 168 -53 309
-22 65 -38 121 -36 123 2 2 363 6 802 8 922 6 962 7 991 23 38 21 40 52 4 84
-35 31 -13 30 -311 27 -176 -1 -1394 -9 -1430 -9 -121 -1 -129 1 -152 33 -62
90 -170 165 -264 185 -56 12 -178 7 -247 -11 -57 -15 -58 -15 -67 6 -4 12 -56
120 -114 241 -58 120 -106 219 -106 221 0 1 -40 86 -90 189 -49 102 -90 190
-90 195 0 6 269 10 663 10 l662 0 0 -82 c0 -72 4 -89 30 -135 70 -129 239
-222 450 -249 22 -3 51 -6 65 -8 63 -10 312 -3 405 10 402 57 746 182 1053
383 109 70 114 73 132 57 28 -26 74 -28 95 -6 39 44 20 82 -83 165 -215 171
-535 301 -862 351 -25 4 -53 9 -63 11 -43 8 -316 22 -321 16z m306 -145 c219
-33 415 -89 583 -167 75 -35 202 -108 210 -120 13 -21 -270 -182 -443 -251
-177 -71 -398 -133 -552 -154 -25 -4 -57 -8 -72 -11 -15 -2 -59 -6 -98 -9 -39
-2 -75 -7 -80 -10 -5 -3 -11 -1 -15 5 -4 6 -11 8 -16 4 -27 -16 -202 -2 -319
27 -186 46 -271 119 -276 237 -2 55 3 63 45 68 47 5 165 16 226 19 314 20 366
24 394 30 28 5 50 32 51 60 0 47 -38 66 -121 60 -219 -13 -269 -17 -309 -21
-86 -8 -201 -11 -205 -4 -6 10 55 64 117 103 94 60 273 119 397 132 30 3 56 7
59 9 6 6 377 -1 424 -7z m-1818 -1347 c66 -18 166 -113 166 -157 0 -19 9 -37
24 -50 26 -23 73 -137 107 -260 17 -58 22 -107 23 -188 1 -164 -10 -229 -65
-391 -27 -80 -49 -153 -49 -160 0 -11 -14 -14 -56 -13 -51 2 -57 5 -82 38 -28
37 -79 97 -122 142 -14 14 -50 55 -80 90 -30 35 -57 66 -60 69 -3 3 -32 37
-65 75 -33 39 -62 72 -65 75 -43 42 -158 206 -193 275 -104 208 -63 390 101
440 20 6 27 -4 81 -117 134 -280 175 -368 218 -458 55 -115 67 -130 108 -130
36 0 67 34 60 67 -4 21 -44 108 -145 318 -128 264 -151 318 -143 326 28 27
157 32 237 9z"/>
<path d="M3745 5680 c-159 -32 -292 -58 -295 -58 -3 0 -7 -1 -10 -2 -7 -2 -26
-6 -95 -19 -33 -6 -71 -13 -85 -16 -14 -3 -38 -7 -55 -10 -16 -3 -50 -10 -75
-15 -25 -5 -58 -12 -75 -15 -16 -3 -66 -12 -109 -20 -43 -8 -86 -17 -95 -19
-16 -5 -24 -7 -111 -21 -54 -9 -62 -10 -120 -23 -25 -6 -65 -14 -90 -17 -24
-4 -47 -8 -50 -10 -4 -3 -39 -9 -105 -20 -11 -2 -45 -9 -75 -15 -30 -6 -68
-13 -85 -16 -16 -2 -37 -7 -45 -9 -8 -2 -28 -7 -45 -9 -31 -6 -113 -22 -130
-26 -5 -1 -20 1 -31 5 -20 6 -21 9 -9 32 15 29 6 75 -22 105 -10 11 -43 33
-73 48 -238 120 -526 102 -810 -51 -75 -41 -278 -173 -317 -206 -11 -10 -46
-40 -78 -68 -32 -27 -65 -54 -74 -59 -9 -5 -22 -16 -30 -23 -7 -8 -29 -22 -50
-32 -20 -11 -46 -30 -58 -43 -21 -22 -22 -26 -9 -75 16 -60 42 -100 88 -135
62 -47 170 -94 241 -103 18 -3 55 -9 84 -13 252 -42 578 78 903 331 63 49 127
101 141 114 18 17 42 25 80 29 52 5 102 10 181 19 21 2 50 13 65 24 16 10 47
22 71 25 l42 6 -39 -57 c-21 -32 -48 -87 -60 -123 -20 -57 -66 -258 -76 -334
-4 -23 -27 -141 -50 -246 -33 -153 -59 -229 -120 -345 -44 -83 -49 -115 -23
-141 15 -16 61 -22 88 -12 8 3 44 14 80 23 85 22 226 70 281 95 244 113 440
397 535 775 1 6 5 28 9 50 4 22 11 60 16 85 4 25 6 113 4 197 -2 84 -1 154 3
157 8 4 187 42 247 52 21 3 47 8 59 10 78 17 174 36 191 38 11 2 34 6 50 10
17 3 41 8 55 11 14 3 48 9 75 15 28 6 64 12 80 15 17 2 48 9 70 14 22 5 60 13
85 16 24 4 47 8 50 10 3 2 23 6 45 9 105 17 135 35 135 84 0 24 -30 52 -61 56
-13 2 -154 -22 -314 -54z m-2075 -211 c25 -7 53 -14 62 -16 39 -7 111 -48 116
-65 2 -10 8 -18 13 -18 5 0 9 -8 9 -18 0 -25 -34 -40 -105 -47 -122 -12 -138
-16 -157 -37 -36 -42 -10 -98 46 -102 14 0 26 -2 26 -2 0 -1 -33 -26 -72 -56
-167 -125 -400 -236 -537 -256 -59 -9 -215 -9 -266 0 -92 15 -194 58 -228 96
-19 20 -18 21 48 69 37 26 84 63 104 82 84 80 295 223 427 289 66 33 206 80
260 86 20 3 38 7 41 9 9 9 169 -1 213 -14z m1175 -314 c0 -72 -5 -136 -9 -144
-5 -8 -10 -26 -12 -40 -7 -71 -48 -198 -96 -300 -102 -220 -248 -380 -404
-446 -40 -17 -181 -65 -189 -65 -3 0 2 17 11 38 21 46 53 140 58 167 2 11 9
38 14 60 6 22 13 51 16 65 3 14 20 104 39 200 19 96 38 195 42 220 28 182 97
295 227 369 43 25 98 41 98 28 0 -1 -24 -49 -53 -107 -51 -100 -101 -227 -111
-280 -2 -14 -5 -27 -6 -30 -1 -3 -2 -25 -1 -49 0 -55 30 -92 69 -85 40 7 54
27 57 80 5 71 12 99 52 199 56 141 136 285 158 285 7 0 16 8 21 18 13 30 21
-42 19 -183z"/>
<path d="M6630 5450 c-16 -12 -23 -28 -23 -50 0 -46 32 -70 97 -71 53 -1 76
-2 291 -13 144 -8 262 -14 405 -21 52 -2 136 -6 185 -9 181 -11 312 -18 395
-21 47 -2 137 -7 200 -10 237 -13 240 -13 263 6 40 32 18 107 -32 110 -59 4
-171 10 -436 23 -44 3 -132 8 -195 11 -63 4 -151 9 -195 11 -44 1 -125 5 -180
8 -55 3 -147 8 -205 11 -58 3 -148 7 -200 10 -52 3 -140 7 -195 10 -55 3 -112
7 -126 9 -15 1 -37 -5 -49 -14z"/>
<path d="M4635 5389 c-22 -4 -66 -10 -98 -14 -32 -4 -71 -10 -87 -15 -16 -4
-30 -6 -33 -4 -2 3 -24 0 -48 -5 -24 -5 -71 -12 -104 -16 -32 -3 -62 -8 -65
-10 -3 -1 -34 -6 -69 -9 -36 -4 -67 -8 -70 -10 -3 -2 -33 -6 -66 -10 -33 -3
-69 -8 -80 -10 -29 -5 -94 -15 -145 -21 -25 -3 -56 -8 -70 -10 -59 -10 -171
-25 -225 -30 -22 -2 -40 -5 -40 -5 0 -1 -11 -3 -25 -6 -77 -13 -121 -28 -130
-44 -16 -30 -12 -55 13 -82 l23 -25 85 13 c46 8 104 16 129 19 25 3 56 7 70
10 13 3 42 7 65 10 22 3 54 8 70 12 17 3 48 7 70 9 22 1 40 3 40 4 0 3 28 7
115 19 47 6 96 13 110 15 14 3 45 7 70 10 25 3 55 8 66 10 12 3 89 14 170 25
82 12 160 23 174 25 14 3 42 7 63 10 20 3 54 9 75 12 69 11 99 66 57 106 -25
24 -52 28 -110 17z"/>
<path d="M9115 5353 c-49 -11 -62 -81 -20 -109 13 -8 50 -18 82 -20 32 -2 85
-6 118 -8 33 -3 92 -7 130 -10 39 -3 102 -8 140 -11 131 -11 190 -15 270 -21
44 -3 96 -7 115 -9 19 -1 78 -6 130 -10 52 -4 111 -8 130 -10 85 -9 239 -19
279 -18 70 0 98 47 60 100 -13 19 -28 23 -95 28 -43 4 -95 8 -114 10 -19 1
-75 5 -125 9 -49 4 -119 9 -155 12 -114 9 -174 15 -220 18 -25 3 -88 7 -140
11 -52 3 -113 8 -135 10 -22 3 -74 7 -115 10 -41 3 -102 7 -135 10 -127 10
-181 12 -200 8z"/>
<path d="M8290 4929 c-19 -4 -53 -10 -75 -13 -58 -7 -112 -16 -175 -26 -30 -5
-68 -12 -85 -14 -16 -3 -72 -12 -124 -21 -52 -8 -109 -18 -127 -20 -19 -3 -49
-7 -66 -10 -30 -4 -246 -39 -308 -49 -29 -5 -96 -16 -125 -20 -11 -2 -40 -7
-65 -10 -25 -4 -70 -11 -100 -16 -78 -13 -120 -20 -155 -25 -157 -24 -195 -42
-195 -89 0 -39 39 -68 81 -61 13 2 44 6 69 9 25 3 55 8 66 10 12 3 71 12 130
21 60 10 118 19 129 21 11 3 40 7 65 10 25 3 52 7 60 9 8 2 29 6 45 9 64 10
121 18 135 21 8 2 35 6 60 9 25 3 56 8 70 11 14 3 39 7 55 9 46 7 102 16 199
32 49 8 108 17 130 19 23 3 64 9 91 15 52 10 98 17 174 27 100 12 134 26 148
60 12 29 11 35 -10 58 -25 29 -48 35 -97 24z"/>
<path d="M5139 4525 c-2 -2 -22 -6 -44 -9 -50 -7 -255 -46 -380 -72 -11 -2
-32 -6 -48 -9 -15 -3 -121 -23 -235 -45 -114 -22 -220 -42 -237 -45 -16 -3
-52 -9 -80 -15 -53 -11 -66 -14 -130 -25 -22 -4 -49 -9 -60 -12 -11 -2 -33 -6
-50 -8 -160 -28 -209 -42 -226 -65 -28 -40 -31 -65 -12 -89 22 -26 56 -34 103
-21 19 5 49 12 65 14 17 3 41 8 55 11 14 3 36 7 50 10 14 2 93 18 175 35 83
17 161 33 175 35 14 2 57 11 95 19 39 8 82 17 98 20 15 4 39 8 55 11 304 61
671 137 685 141 45 14 58 92 19 110 -20 9 -68 15 -73 9z"/>
<path d="M10627 4344 c-3 -3 -77 -7 -387 -19 -328 -13 -335 -14 -346 -48 -13
-37 -12 -43 6 -68 18 -22 24 -24 122 -23 57 0 153 4 213 7 61 4 173 9 250 13
262 10 271 12 285 50 13 32 -3 70 -32 80 -24 8 -105 13 -111 8z"/>
<path d="M4190 4127 c-13 -7 -27 -23 -30 -37 -7 -27 3 -88 17 -100 4 -5 134
-50 288 -100 154 -51 284 -96 288 -100 5 -4 -47 -6 -115 -4 -68 2 -195 6 -283
8 -88 3 -160 5 -160 6 0 0 -92 3 -205 6 -113 2 -279 7 -370 10 -668 19 -658
20 -681 -5 -28 -30 -25 -77 7 -98 22 -14 54 -18 173 -19 288 -5 841 -18 1221
-29 227 -7 486 -14 680 -19 150 -4 167 -7 265 -46 218 -87 228 -89 265 -58 20
18 25 43 14 73 -7 17 -74 55 -99 55 -10 0 -15 10 -15 28 0 16 -9 37 -20 47
-19 18 -42 21 -180 28 -55 3 -126 27 -480 162 -505 192 -500 190 -531 198 -13
3 -35 1 -49 -6z"/>
<path d="M8268 4125 c-2 -3 -44 -7 -94 -10 -49 -3 -102 -8 -119 -10 -33 -4
-156 -15 -225 -20 -25 -2 -79 -6 -120 -9 -41 -4 -102 -9 -135 -11 -33 -2 -60
-5 -60 -5 0 -1 -23 -3 -51 -5 -27 -2 -84 -6 -125 -10 -41 -4 -99 -8 -130 -9
-74 -3 -115 -21 -127 -55 -8 -22 -5 -32 12 -54 24 -29 40 -32 131 -23 98 10
187 17 240 21 28 1 82 6 120 10 39 3 93 8 120 10 103 8 192 15 250 21 33 3 83
7 110 9 267 20 270 20 285 60 13 35 13 39 -7 62 -17 19 -65 37 -75 28z"/>
<path d="M6464 3632 c-34 -18 -43 -29 -39 -51 2 -9 4 -23 4 -32 1 -18 33 -36
76 -44 123 -21 223 -38 240 -41 21 -4 42 -8 135 -24 100 -17 115 -20 140 -25
14 -3 40 -8 59 -11 18 -3 41 -7 50 -9 9 -1 36 -6 61 -10 25 -4 54 -9 65 -11
11 -2 58 -11 105 -19 47 -8 94 -17 105 -19 11 -2 40 -7 65 -11 50 -8 73 -12
110 -20 14 -3 66 -12 115 -21 125 -21 137 -23 161 -28 12 -2 37 -7 55 -10 19
-3 57 -10 86 -15 29 -6 74 -13 100 -17 26 -3 51 -8 55 -10 3 -2 30 -7 60 -10
29 -3 56 -8 59 -10 3 -2 21 -6 40 -9 19 -3 59 -10 89 -16 30 -6 66 -12 80 -14
14 -2 88 -15 165 -29 77 -14 156 -28 175 -30 19 -3 85 -15 145 -26 61 -12 124
-23 140 -25 17 -2 41 -7 55 -10 95 -21 160 -30 177 -24 39 14 59 58 41 92 -13
25 -47 38 -133 51 -68 11 -182 30 -355 61 -80 15 -154 28 -165 30 -11 1 -76
13 -145 25 -69 12 -134 24 -145 26 -11 1 -58 10 -105 18 -47 9 -105 19 -130
22 -25 3 -47 8 -50 9 -3 2 -24 6 -46 9 -22 4 -49 8 -59 10 -29 6 -185 34 -220
41 -16 2 -104 18 -195 34 -91 17 -181 33 -200 36 -19 3 -208 38 -420 76 -212
39 -398 73 -415 76 -16 3 -60 11 -96 18 -56 10 -70 10 -95 -3z"/>
<path d="M4857 3494 c-1 -1 -94 -5 -207 -9 -113 -4 -241 -9 -285 -11 -44 -1
-143 -5 -220 -8 -77 -3 -185 -8 -240 -11 -55 -3 -170 -8 -255 -10 -85 -2 -155
-5 -155 -5 0 -1 -22 -3 -50 -6 -94 -8 -132 -40 -113 -95 11 -33 41 -46 98 -43
70 4 272 13 420 19 74 3 178 7 231 10 54 2 166 7 250 10 85 3 195 8 244 10
328 14 392 17 405 17 8 0 29 4 46 9 54 17 55 97 2 115 -20 7 -165 13 -171 8z"/>
<path d="M4235 3153 c-27 -6 -45 -31 -45 -63 0 -33 26 -57 65 -61 17 -2 35 -6
40 -10 6 -4 208 -10 450 -13 818 -12 1484 -25 2095 -41 349 -9 698 -17 823
-18 124 -2 130 -1 148 22 28 34 11 89 -31 100 -8 2 -71 5 -140 6 -69 2 -242 6
-385 10 -143 4 -336 8 -430 10 -93 2 -271 6 -395 10 -239 6 -468 11 -850 20
-129 4 -307 8 -395 10 -88 2 -274 6 -413 9 -140 4 -313 8 -385 10 -73 2 -141
1 -152 -1z"/>
<path d="M5070 2728 c-20 -7 -40 -38 -40 -61 0 -8 8 -25 19 -38 22 -27 -121
-24 1811 -34 663 -3 1291 -6 1395 -7 105 -1 199 2 211 5 43 15 50 87 11 109
-26 14 -28 14 -1582 23 -660 3 -1336 7 -1503 8 -167 1 -312 -1 -322 -5z"/>
</g>
</svg>
